<?xml version="1.0" encoding="UTF-8" standalone="no"?>
<!-- Created with Inkscape (http://www.inkscape.org/) -->

<svg
   xmlns:dc="http://purl.org/dc/elements/1.1/"
   xmlns:cc="http://creativecommons.org/ns#"
   xmlns:rdf="http://www.w3.org/1999/02/22-rdf-syntax-ns#"
   xmlns:svg="http://www.w3.org/2000/svg"
   xmlns="http://www.w3.org/2000/svg"
   xmlns:sodipodi="http://sodipodi.sourceforge.net/DTD/sodipodi-0.dtd"
   xmlns:inkscape="http://www.inkscape.org/namespaces/inkscape"
   id="svg2"
   version="1.1"
   inkscape:version="0.48.2 r9819"
   width="100"
   height="100"
   xml:space="preserve"
   sodipodi:docname="Backspace_Avatar_RGB_TranspBG.svg"><metadata
     id="metadata8"><rdf:RDF><cc:Work
         rdf:about=""><dc:format>image/svg+xml</dc:format><dc:type
           rdf:resource="http://purl.org/dc/dcmitype/StillImage" /><dc:title></dc:title></cc:Work></rdf:RDF></metadata><defs
     id="defs6"><clipPath
       clipPathUnits="userSpaceOnUse"
       id="clipPath18"><path
         d="m 0,0 4656,0 0,810.914 -4656,0 L 0,0 z"
         id="path20"
         inkscape:connector-curvature="0" /></clipPath></defs><sodipodi:namedview
     pagecolor="#ffffff"
     bordercolor="#666666"
     borderopacity="1"
     objecttolerance="10"
     gridtolerance="10"
     guidetolerance="10"
     inkscape:pageopacity="0"
     inkscape:pageshadow="2"
     inkscape:window-width="1280"
     inkscape:window-height="754"
     id="namedview4"
     showgrid="false"
     inkscape:zoom="2.7421501"
     inkscape:cx="28.724819"
     inkscape:cy="43.135896"
     inkscape:window-x="0"
     inkscape:window-y="26"
     inkscape:window-maximized="1"
     inkscape:current-layer="g10" /><g
     id="g10"
     inkscape:groupmode="layer"
     inkscape:label="ink_ext_XXXXXX"
     transform="matrix(1.25,0,0,-1.25,0,99.999997)"><g
       id="g3808"
       inkscape:export-filename="/home/fenring/Pictures/Backspace/Logo/Source_RGB/Backspace_Avatar_RGB_TranspBG.png"
       inkscape:export-xdpi="473.67999"
       inkscape:export-ydpi="473.67999"><rect
         transform="scale(1,-1)"
         y="-78"
         x="2"
         height="76"
         width="76"
         id="rect3085"
         style="fill:none;fill-opacity:1;stroke:none" /><g
         style="fill:#1d4d99;fill-opacity:1"
         transform="translate(120.25455,-4.5899421)"
         id="g3087"><path
           inkscape:connector-curvature="0"
           id="path50"
           style="fill:#1d4d99;fill-opacity:1;fill-rule:nonzero;stroke:none"
           d="m -57.382654,9.6610624 -46.894896,-0.0543 c -0.58208,-0.02539 -1.90825,-0.025 -2.63012,0.5691396 -0.72149,0.59336 -0.8129,0.74336 -1.11797,1.11875 -0.30508,0.37578 -3.10079,4.46285 -3.10079,4.46285 -0.59257,1.0204 -0.99921,1.9567 -0.98281,2.6911 l 0,34.7207 c 0.85625,0.2336 1.4875,1.0097 1.4875,1.9371 0,1.1148 -0.90078,2.0191 -2.01562,2.0191 -1.11524,0 -2.01719,-0.9043 -2.01719,-2.0191 0,-0.9243 0.62851,-1.6977 1.48047,-1.9344 l 0,-34.7234 c 0.016,-1.1532 0.54336,-2.3848 1.35273,-3.4942 0.14258,-0.2223 0.28438,-0.4418 0.42696,-0.6621 0.64179,-0.9832 1.17343,-1.66523 1.8207,-2.64335 0.66172,-0.99922 1.32383,-2.0078196 2.43242,-2.5976596 0.82891,-0.43906 1.92852,-0.45039 2.88052,-0.45742 l 46.887796,-0.00352 c 0,0 0.8707,-0.03515 0.8707,0.54336 0,0.57578 -0.8804,0.52735 -0.8804,0.52735"
           inkscape:export-filename="/home/fenring/Pictures/Backspace/Logo/Logos RGB/Backspace-Avatar_RGB_BGWeiss.png"
           inkscape:export-xdpi="521.56"
           inkscape:export-ydpi="521.56" /><path
           inkscape:connector-curvature="0"
           id="path52"
           style="fill:#1d4d99;fill-opacity:1;fill-rule:nonzero;stroke:none"
           d="m -49.107254,64.552102 c -0.3176,-0.8719 -1.1528,-1.418 -2.0371,-1.3184 -0.0582,0.0059 -0.35,0.0758 -0.4204,0.1016 -0.1152,0.0422 -0.221,0.0957 -0.323,0.1558 l -14.9012,-15.5824 -1.7601,-1.8394 c 0.1699,-0.352 0.234,-0.7442 0.1812,-1.1243 -0.0484,-0.4007 -0.2168,-0.7894 -0.5176,-1.1039 -0.7441,-0.7773 -1.9765,-0.8047 -2.7558,-0.0586 -0.7789,0.7438 -0.8031,1.9782 -0.0598,2.7555 0.6383,0.668 1.6031,0.8496 2.3664,0.3953 l 1.7567,1.8 14.8839,15.5676 c -0.2554,0.4758 -0.3234,1.0492 -0.1242,1.5969 0.3742,1.0258 1.5067,1.5578 2.5321,1.1836 0.016,-0.0051 0.0293,-0.0157 0.0449,-0.0215 0.9914,-0.3906 1.5008,-1.5008 1.134,-2.5078 z m -7.1996,-41.4598 c -0.1254,-0.1195 -0.2864,-0.1789 -0.4469,-0.1789 -0.1719,0 -0.3434,0.068 -0.4711,0.2031 l -19.8477,20.9418 -19.8472,-20.9418 c -0.1278,-0.1351 -0.2996,-0.2031 -0.4715,-0.2031 -0.161,0 -0.3215,0.0594 -0.4469,0.1789 -0.2605,0.2461 -0.2715,0.6574 -0.0242,0.918 l 19.8949,20.9926 -19.8945,20.9914 c -0.2473,0.2601 -0.236,0.6711 0.025,0.9175 0.2586,0.2485 0.6691,0.2379 0.9179,-0.0242 l 19.8465,-20.941 19.8465,20.941 c 0.2477,0.2621 0.6582,0.2727 0.9188,0.0242 0.2605,-0.2464 0.2718,-0.6574 0.0242,-0.9175 l -19.8945,-20.9914 19.8957,-20.9926 c 0.2468,-0.2606 0.2359,-0.6719 -0.025,-0.918 z m -44.636396,2.5395 c 4e-4,-0.011 0.004,-0.0219 0.005,-0.0332 0.009,-0.1118 0.002,-0.225 -0.009,-0.3383 -0.002,-0.0246 0,-0.0481 -0.004,-0.0719 -0.0176,-0.1348 -0.0496,-0.2695 -0.0984,-0.4023 -0.3742,-1.0262 -1.5067,-1.5579 -2.5321,-1.1836 -1.0234,0.3726 -1.55152,1.5062 -1.17964,2.5296 0.15114,0.4122 0.42814,0.7399 0.76834,0.9657 0.1172,0.0773 0.2442,0.1406 0.375,0.1926 0.0207,0.0078 0.0418,0.0148 0.0629,0.0218 0.1113,0.0399 0.2258,0.068 0.3422,0.0875 0.0348,0.0055 0.0684,0.0117 0.1031,0.0153 0.1082,0.0121 0.2184,0.0113 0.3281,0.0047 0.0391,-0.0024 0.0782,-4e-4 0.1168,-0.0051 0.1446,-0.0184 0.254,-0.0485 0.3973,-0.1008 0.1008,-0.0371 0.2098,-0.1074 0.3004,-0.1582 l 14.708996,15.3824 1.7476,1.8258 c -0.3511,0.7039 -0.2246,1.5371 0.35,2.1371 0.7317,0.7641 1.9438,0.791 2.7094,0.0582 0.766,-0.7316 0.7903,-1.9449 0.0594,-2.709 -0.6246,-0.6539 -1.5535,-0.8054 -2.3024,-0.3652 l -1.7164,-1.7949 -14.721096,-15.3946 c 0.0985,-0.2086 0.1661,-0.4316 0.1883,-0.6636 z m 51.064496,42.5746 c -0.1199,0.0433 -0.2414,0.064 -0.3625,0.0918 l 0,1.3121 c 0,1.9234 -1.5602,3.4836 -3.4836,3.4836 l -46.788696,0 c -1.9238,0 -3.4816,-1.5602 -3.4816,-3.4836 l 0,-41.2906 c -0.83128,-0.3059 -1.53128,-0.9477 -1.85745,-1.8458 -0.58789,-1.6179 0.24453,-3.4066 1.86285,-3.9968 0.3411,-0.1239 0.6875,-0.1711 1.0305,-0.1739 0.4934,-0.68 3.436296,-4.7378 3.770296,-5.0753 0.3656,-0.368 1.0774,-0.5661 1.9145,-0.5723 l 43.5496,0 c 1.9234,0 3.4836,1.5617 3.4836,3.4832 l 0,42.1062 c 0.9922,0.2305 1.8523,0.9368 2.2258,1.9653 0.5882,1.6176 -0.2446,3.4062 -1.8633,3.9961"
           inkscape:export-filename="/home/fenring/Pictures/Backspace/Logo/Logos RGB/Backspace-Avatar_RGB_BGWeiss.png"
           inkscape:export-xdpi="521.56"
           inkscape:export-ydpi="521.56" /><path
           inkscape:connector-curvature="0"
           id="path54"
           style="fill:#1d4d99;fill-opacity:1;fill-rule:nonzero;stroke:none"
           d="m -110.0276,77.383302 c 0.36563,1.0008 1.47305,1.5223 2.475,1.1559 1.00235,-0.3676 1.52032,-1.4735 1.15547,-2.4731 -0.36601,-1.0047 -1.47422,-1.5238 -2.47617,-1.1566 -1.00234,0.3633 -1.51836,1.4734 -1.1543,2.4738 z m 62.380846,-62.3613 c -0.9215,0 -1.6902,-0.6234 -1.9312,-1.4688 l -50.2891,-0.05269 c -0.581996,-0.02617 -2.115996,0.01249 -2.906996,0.74419 -0.5793,0.5355 -3.93988,5.4066 -3.93988,5.4066 -0.59453,1.0199 -1.00117,1.9558 -0.98398,2.6937 l 0,51.3395 c 1.03398,0.1859 1.94727,0.8891 2.33359,1.9473 0.0707,0.1953 0.12032,0.3929 0.14961,0.5906 l 42.634356,0 c 0.6598,0.0125 1.3766,0.2265 2.0215,0.55 0.3336,-0.2867 0.7621,-0.4656 1.2367,-0.4656 1.0543,0 1.9071,0.8543 1.9071,1.907 0,1.0516 -0.8528,1.9059 -1.9071,1.9059 -1.0543,0 -1.9086,-0.8543 -1.9086,-1.9059 0,-0.1852 0.0348,-0.3598 0.0844,-0.5293 -0.4965,-0.2285 -1.0437,-0.3922 -1.434,-0.3836 l -42.674196,0.0043 c -0.21211,0.9926 -0.90625,1.8602 -1.93242,2.234 -1.58516,0.5758 -3.33281,-0.2379 -3.9082,-1.8219 -0.57579,-1.584 0.23906,-3.3336 1.82343,-3.9098 0.16797,-0.0617 0.33789,-0.098 0.50821,-0.1285 l 0,-51.334 c 0.0164,-1.1566 0.54414,-2.3882 1.35273,-3.4972 0.14258,-0.2215 0.28437,-0.4403 0.42773,-0.661 0.64141,-0.9828 1.17422,-1.6648 1.82071,-2.6429 0.66171,-1.0008 1.32301,-2.0071 2.43161,-2.5973 0.8289,-0.43945 1.9285,-0.45234 2.880496,-0.45742 l 50.2617,-0.0047 c 0.2301,-0.86093 1.0086,-1.49726 1.9418,-1.49726 1.116,0 2.0156,0.90156 2.0156,2.01484 0,1.11443 -0.8996,2.01993 -2.0156,2.01993"
           inkscape:export-filename="/home/fenring/Pictures/Backspace/Logo/Logos RGB/Backspace-Avatar_RGB_BGWeiss.png"
           inkscape:export-xdpi="521.56"
           inkscape:export-ydpi="521.56" /></g></g></g></svg>