<?xml version="1.0" encoding="UTF-8" standalone="no"?>
<!-- Created with Inkscape (http://www.inkscape.org/) -->

<svg
   xmlns:dc="http://purl.org/dc/elements/1.1/"
   xmlns:cc="http://creativecommons.org/ns#"
   xmlns:rdf="http://www.w3.org/1999/02/22-rdf-syntax-ns#"
   xmlns:svg="http://www.w3.org/2000/svg"
   xmlns="http://www.w3.org/2000/svg"
   xmlns:sodipodi="http://sodipodi.sourceforge.net/DTD/sodipodi-0.dtd"
   xmlns:inkscape="http://www.inkscape.org/namespaces/inkscape"
   id="svg3223"
   version="1.1"
   inkscape:version="0.48.3.1 r9886"
   width="582.025"
   height="101.3625"
   xml:space="preserve"
   sodipodi:docname="Backspace_Logo_final_RGB.eps"><metadata
     id="metadata3229"><rdf:RDF><cc:Work
         rdf:about=""><dc:format>image/svg+xml</dc:format><dc:type
           rdf:resource="http://purl.org/dc/dcmitype/StillImage" /><dc:title></dc:title></cc:Work></rdf:RDF></metadata><defs
     id="defs3227"><clipPath
       clipPathUnits="userSpaceOnUse"
       id="clipPath3239"><path
         d="m 0,0 4656,0 0,810.914 -4656,0 L 0,0 z"
         id="path3241" /></clipPath></defs><sodipodi:namedview
     pagecolor="#ffffff"
     bordercolor="#666666"
     borderopacity="1"
     objecttolerance="10"
     gridtolerance="10"
     guidetolerance="10"
     inkscape:pageopacity="0"
     inkscape:pageshadow="2"
     inkscape:window-width="1278"
     inkscape:window-height="760"
     id="namedview3225"
     showgrid="false"
     inkscape:zoom="1.9792963"
     inkscape:cx="201.83941"
     inkscape:cy="50.681252"
     inkscape:window-x="0"
     inkscape:window-y="19"
     inkscape:window-maximized="0"
     inkscape:current-layer="g3231" /><g
     id="g3231"
     inkscape:groupmode="layer"
     inkscape:label="ink_ext_XXXXXX"
     transform="matrix(1.25,0,0,-1.25,0,101.3625)"><g
       id="g3233"
       transform="scale(0.1,0.1)"
       style="fill:#ffffff;fill-opacity:1"><g
         id="g3235"
         style="fill:#ffffff;fill-opacity:1"><g
           id="g3237"
           clip-path="url(#clipPath3239)"
           style="fill:#ffffff;fill-opacity:1"><path
             d="m 2110.44,602.965 c -35.59,21.039 -74.41,31.543 -116.48,31.543 -31.83,0 -61.21,-5.391 -88.16,-16.172 -26.98,-10.797 -50.02,-26.168 -69.15,-46.102 -19.15,-19.964 -33.85,-43.562 -44.09,-70.781 -10.26,-27.226 -15.37,-56.48 -15.37,-87.762 0,-32.359 5.39,-62.16 16.17,-89.375 10.78,-27.226 26.02,-50.687 45.7,-70.375 19.68,-19.707 42.47,-34.761 68.36,-45.281 25.89,-10.512 53.38,-15.773 82.5,-15.773 21.03,0 43.4,2.551 67.13,7.675 23.72,5.129 42.33,11.723 55.81,19.825 l 4.85,-78.469 c -18.88,-8.09 -39.51,-13.477 -61.87,-16.18 -22.38,-2.703 -44.63,-4.043 -66.73,-4.043 -44.22,0 -84.67,6.883 -121.34,20.645 -36.67,13.722 -68.21,33.555 -94.62,59.426 -26.43,25.89 -46.67,57.019 -60.67,93.437 -14.04,36.395 -21.03,76.692 -21.03,120.914 0,42.594 7.29,81.836 21.84,117.695 14.57,35.844 35.3,66.579 62.28,92.2 26.95,25.621 58.78,45.3 95.45,59.043 36.67,13.773 76.29,20.629 118.9,20.629 48,0 90.3,-8.086 126.99,-24.258 l -6.47,-78.461"
             style="fill:#ffffff;fill-opacity:1;fill-rule:nonzero;stroke:none"
             id="path3243" /><path
             d="m 2947.55,611.055 c -22.63,8.617 -40.97,14.691 -54.99,18.199 -14.01,3.5 -31.02,5.262 -50.98,5.262 -11.87,0 -23.57,-1.211 -35.17,-3.649 -11.59,-2.426 -22.24,-6.472 -31.95,-12.133 -9.69,-5.652 -17.38,-13.476 -23.04,-23.445 -5.66,-10 -8.52,-21.98 -8.52,-35.996 0,-21.031 7.82,-37.887 23.47,-50.555 15.65,-12.679 40.17,-27.101 73.59,-43.273 23.19,-10.793 42.19,-20.5 57.04,-29.133 14.84,-8.621 29.13,-19.547 42.89,-32.742 13.74,-13.215 24.77,-29.125 33.15,-47.731 8.34,-18.601 12.54,-40.582 12.54,-65.914 0,-29.117 -5.26,-54.472 -15.77,-76.05 -10.51,-21.567 -25.23,-39.11 -44.09,-52.547 -18.89,-13.489 -40.6,-23.473 -65.11,-29.93 -24.54,-6.484 -51.63,-9.723 -81.3,-9.723 -17.78,0 -35.87,2.02 -54.19,6.075 -18.33,4.046 -38.82,9.843 -61.48,17.398 l 8.09,75.207 c 17.26,-7.02 36.54,-13.34 57.85,-19.004 21.27,-5.652 41.11,-8.484 59.46,-8.484 12.36,0 25.05,1.754 38.01,5.261 12.91,3.5 24.92,9.004 35.96,16.563 11.06,7.551 19.95,17.258 26.71,29.129 6.75,11.851 10.12,25.594 10.12,41.242 0,14.016 -2.84,26.301 -8.5,36.805 -5.68,10.523 -13.62,20.355 -23.84,29.531 -13.52,10.77 -38.03,24.52 -73.62,41.254 -22.12,10.781 -40.17,20.078 -54.21,27.894 -14.01,7.809 -27.5,17.653 -40.41,29.524 -12.96,11.851 -23.2,26.156 -30.77,42.871 -7.54,16.695 -11.31,36.391 -11.31,59.043 0,48.523 16.99,86.266 50.94,113.25 33.98,26.949 77.39,40.434 130.22,40.434 19.43,0 39.66,-1.618 60.69,-4.852 21.01,-3.234 40.96,-8.363 59.85,-15.367 l -11.33,-74.414"
             style="fill:#ffffff;fill-opacity:1;fill-rule:nonzero;stroke:none"
             id="path3245" /><path
             d="m 4273.67,602.965 c -35.59,21.039 -74.41,31.543 -116.47,31.543 -31.84,0 -61.22,-5.391 -88.16,-16.172 -26.98,-10.797 -50.03,-26.168 -69.17,-46.102 -19.14,-19.964 -33.83,-43.562 -44.07,-70.781 -10.26,-27.226 -15.38,-56.48 -15.38,-87.762 0,-32.359 5.41,-62.16 16.18,-89.375 10.8,-27.226 26.01,-50.687 45.71,-70.375 19.67,-19.707 42.44,-34.761 68.34,-45.281 25.89,-10.512 53.4,-15.773 82.51,-15.773 21.03,0 43.39,2.551 67.12,7.675 23.72,5.129 42.32,11.723 55.82,19.825 l 4.85,-78.469 c -18.87,-8.09 -39.51,-13.477 -61.86,-16.18 -22.41,-2.703 -44.64,-4.043 -66.76,-4.043 -44.21,0 -84.63,6.883 -121.33,20.645 -36.65,13.722 -68.18,33.555 -94.62,59.426 -26.41,25.89 -46.66,57.019 -60.64,93.437 -14.05,36.395 -21.05,76.692 -21.05,120.914 0,42.594 7.29,81.836 21.84,117.695 14.58,35.844 35.28,66.579 62.26,92.2 26.98,25.621 58.79,45.3 95.44,59.043 36.69,13.773 76.32,20.629 118.93,20.629 47.98,0 90.3,-8.086 126.99,-24.258 l -6.48,-78.461"
             style="fill:#ffffff;fill-opacity:1;fill-rule:nonzero;stroke:none"
             id="path3247" /><path
             d="M 3280.29,24.0586 C 3276.64,14 3265.53,8.83203 3255.5,12.4883 c -10.01,3.625 -15.17,14.7344 -11.5,24.7422 3.63,9.9961 14.72,15.2187 24.74,11.539 10.01,-3.6562 15.16,-14.7422 11.55,-24.7109 z m 260.63,688.4684 c -10.51,0 -19.06,-8.539 -19.06,-19.066 0,-6.465 3.24,-12.168 8.17,-15.613 L 3267.35,60.4297 c -14.36,2.6015 -28.89,-5.3281 -34.05,-19.5117 -5.77,-15.8555 2.38,-33.31644 18.21,-39.07034 15.82,-5.75782 33.33,2.38672 39.11,18.20704 5.04,13.9336 -0.68,29.1601 -12.93,36.5391 l 262.87,617.8402 c 0.13,-0.004 0.24,-0.036 0.36,-0.036 10.56,0 19.09,8.536 19.09,19.063 0,10.527 -8.53,19.066 -19.09,19.066"
             style="fill:#ffffff;fill-opacity:1;fill-rule:nonzero;stroke:none"
             id="path3249" /><path
             d="m 4378.14,762.316 c -10.02,3.637 -15.2,14.731 -11.56,24.739 3.67,10.011 14.74,15.226 24.76,11.554 10.03,-3.66 15.19,-14.726 11.55,-24.726 -3.66,-10.047 -14.72,-15.227 -24.75,-11.567 z M 4438.1,37.1445 c 3.62,9.9961 14.72,15.2071 24.74,11.543 10.01,-3.6719 15.16,-14.7344 11.54,-24.7031 -3.64,-10.0586 -14.76,-15.23831 -24.78,-11.5821 -10.02,3.6329 -15.17,14.7305 -11.5,24.7422 z m 218.09,587.6645 0,71.175 -266.29,0 0,54.442 c 10.32,1.867 19.46,8.898 23.3,19.472 5.77,15.813 -2.38,33.313 -18.21,39.086 -15.84,5.743 -33.34,-2.394 -39.08,-18.23 -5.77,-15.848 2.38,-33.332 18.22,-39.106 1.68,-0.609 3.38,-0.98 5.08,-1.289 l 0,-609.152 c 0.18,-11.543 5.24,-20.187 12.5,-32.879 l 40.68,-58.5546 c -2.05,-2.539 -3.82,-5.3593 -4.99,-8.5976 -5.76,-15.8281 2.38,-33.31642 18.21,-39.07033 15.82,-5.75781 33.33,2.40234 39.1,18.23043 5.73,15.8047 -2.4,33.3164 -18.21,39.0743 -9.24,3.3554 -18.96,1.8828 -26.66,-2.9688 l -40.12,59.4336 c -3.44,5.492 -5.79,10.668 -7.22,15.531 l 263.69,0 0,71.168 -235.36,0 0,186.043 214.34,0 0,71.18 -214.34,0 0,165.012 235.36,0"
             style="fill:#ffffff;fill-opacity:1;fill-rule:nonzero;stroke:none"
             id="path3251" /><path
             d="m 2496.16,749.516 c -11.14,0 -20.18,-9.032 -20.18,-20.164 0,-4.657 1.64,-8.887 4.3,-12.297 l -221.41,-224.848 0,203.777 -80.91,0 0,-285.941 -5.56,-5.645 c -6.33,-6.605 -10.77,-17.324 -10.91,-26.484 l 0,-241.676 c 0,0 1.26,-4.836 5.17,-4.836 4.43,-0.125 5.67,5.039 5.67,5.039 l 0,241.836 c -0.18,5.856 4.07,16.016 8.3,20.028 l 307.69,312.476 c 2.4,-1.023 5.05,-1.586 7.84,-1.586 11.13,0 20.16,9.032 20.16,20.157 0,11.132 -9.03,20.164 -20.16,20.164"
             style="fill:#ffffff;fill-opacity:1;fill-rule:nonzero;stroke:none"
             id="path3253" /><path
             d="m 2223.68,48.9609 c 10.02,-3.6562 15.17,-14.7421 11.54,-24.7109 -3.65,-10.0625 -14.73,-15.22656 -24.75,-11.5703 -10.02,3.625 -15.18,14.7305 -11.54,24.7422 3.64,9.9961 14.73,15.2226 24.75,11.539 z m 339.24,713.1841 c -10.03,3.64 -15.2,14.738 -11.57,24.75 3.67,10.007 14.75,15.21 24.77,11.543 10.03,-3.657 15.18,-14.719 11.53,-24.719 -3.65,-10.043 -14.72,-15.235 -24.73,-11.574 z m -216.51,-333.086 265.29,266.925 -80.92,0 33.6,34.539 c 4.72,4.883 8.35,12.227 10.02,19.696 10.44,1.793 19.7,8.843 23.57,19.515 5.78,15.809 -2.38,33.301 -18.21,39.075 -15.84,5.757 -33.34,-2.379 -39.07,-18.219 -5.75,-15.844 2.37,-33.328 18.21,-39.102 1.43,-0.515 2.87,-0.793 4.32,-1.093 -1.55,-4.903 -4.13,-9.766 -6.66,-12.125 L 2222.78,395.215 c -6.55,-6.832 -11.05,-17.738 -11.19,-27.153 l 0,-307.4722 c -10.36,-1.8398 -19.49,-8.8671 -23.33,-19.4804 -5.77,-15.8555 2.37,-33.31643 18.2,-39.07424 15.82,-5.75782 33.32,2.39453 39.09,18.20704 5.76,15.832 -2.39,33.3437 -18.22,39.0976 -1.58,0.5782 -3.17,0.9102 -4.76,1.211 l 0,70.8552 40.55,0 0,276.625 251.53,-276.625 118.1,0 -286.34,297.653"
             style="fill:#ffffff;fill-opacity:1;fill-rule:nonzero;stroke:none"
             id="path3255" /><path
             d="m 1062.59,243.43 c -7.28,-12.137 -17.26,-21.434 -29.92,-27.918 -12.68,-6.457 -27.11,-11.055 -43.279,-13.75 -16.188,-2.703 -34.254,-4.047 -54.2,-4.047 l -60.66,0 0,190.902 52.574,0 c 20.489,0 38.95,-1.215 55.415,-3.644 16.433,-2.43 31.54,-7.161 45.28,-14.129 13.76,-7.039 24.8,-17.289 33.17,-30.75 8.37,-13.489 12.54,-30.489 12.54,-50.957 0,-18.352 -3.65,-33.586 -10.92,-45.707 z m -188.059,386.222 84.934,0 c 12.93,0 25.48,-1.351 37.605,-4.047 12.13,-2.695 23.19,-7.148 33.16,-13.339 9.97,-6.211 18.06,-14.84 24.28,-25.887 6.18,-11.063 9.29,-24.66 9.29,-40.848 0,-19.957 -3.64,-36.121 -10.91,-48.523 -7.28,-12.414 -17.54,-21.578 -30.74,-27.504 -13.22,-5.942 -27.916,-9.84 -44.084,-11.734 -16.175,-1.903 -35.859,-2.821 -59.05,-2.821 l -44.485,0 0,174.703 z M 927.355,69.4883 c 10.016,-3.6602 15.2,-14.7422 11.551,-24.7188 -3.656,-10.0586 -14.742,-15.2187 -24.765,-11.5625 -10.02,3.6172 -15.188,14.7188 -11.539,24.7383 0.191,0.5156 0.472,0.9649 0.703,1.457 1.601,3.4454 4.066,6.2188 7.093,8.1524 4.891,3.125 11.086,4.0898 16.957,1.9336 z M 819.363,762.754 c -10.008,3.648 -15.183,14.742 -11.543,24.75 3.66,10.012 14.735,15.207 24.754,11.539 10.031,-3.652 15.199,-14.727 11.551,-24.711 -3.656,-10.047 -14.738,-15.234 -24.762,-11.578 z m 303.887,-386.27 c -23.99,24.27 -55.68,38.024 -95.04,41.266 l 0,1.621 c 37.74,9.141 66.6,24.52 86.55,46.09 19.94,21.559 29.93,50.961 29.93,88.156 0,49.613 -17.39,85.742 -52.16,108.391 -34.79,22.648 -83.47,33.976 -146.01,33.976 l -114.887,0 0,54.598 c 10.129,2 19.019,8.992 22.82,19.402 5.774,15.817 -2.391,33.313 -18.223,39.082 -15.839,5.746 -33.332,-2.386 -39.082,-18.23 -5.761,-15.84 2.387,-33.328 18.235,-39.098 1.797,-0.648 3.609,-1.07 5.429,-1.379 l 0,-590.054 c 0.211,-10.91 5.5,-23.649 13.04,-31.512 l 60.976,-60.9375 c -1.14,-1.8164 -2.137,-3.7617 -2.902,-5.8633 -5.758,-15.8555 2.39,-33.3164 18.23,-39.086 15.821,-5.7421 33.305,2.4063 39.074,18.2227 5.758,15.8125 -2.39,33.3438 -18.218,39.0977 -10.121,3.6796 -20.891,1.6328 -28.867,-4.4219 l -55.583,55.6013 97.532,0 c 30.726,0 58.906,2.27 84.516,6.871 25.62,4.575 48.25,12.543 67.94,23.868 19.69,11.312 35.06,26.832 46.12,46.511 11.04,19.68 16.58,44.094 16.58,73.192 0,38.82 -12.01,70.379 -36,94.636"
             style="fill:#ffffff;fill-opacity:1;fill-rule:nonzero;stroke:none"
             id="path3257" /><path
             d="m 1998.24,773.727 c -3.66,-10.043 -14.75,-15.235 -24.77,-11.579 -10.01,3.649 -15.18,14.743 -11.53,24.75 3.64,10.012 14.72,15.227 24.74,11.555 10.04,-3.668 15.2,-14.726 11.56,-24.726 z m -7.89,35.085 c -15.86,5.762 -33.35,-2.378 -39.1,-18.218 -0.46,-1.297 -0.7,-2.61 -0.99,-3.918 l -387.22,0 c -10.97,-0.188 -23.8,-5.52 -31.7,-13.106 l -23.46,-27.722 c -7.62,-7.864 -13.7,-21.828 -13.87,-32.758 0,0 -0.54,-4.828 -0.34,-9.18 0.2,-4.351 1.6,-11.226 1.6,-11.226 L 1764.4,34.5156 c -4.69,-3.4765 -7.77,-9.0117 -7.77,-15.2968 0,-10.51958 8.53,-19.066456 19.06,-19.066456 10.53,0 19.07,8.546876 19.07,19.066456 0,10.5156 -8.54,19.0781 -19.07,19.0781 -0.32,0 -0.61,-0.0781 -0.91,-0.0938 -45.4,110.7499 -266.9,651.2459 -268.58,656.5469 -2.09,6.594 -1.61,17.004 -1.61,17.004 -0.16,6.984 5.86,21.562 11,26.379 l 23.47,27.722 c 4.79,5.067 17.01,10.141 23.98,9.911 l 386.83,0 c 1.58,-10.723 8.69,-20.289 19.61,-24.266 15.81,-5.746 33.33,2.41 39.11,18.242 5.75,15.805 -2.41,33.305 -18.24,39.07"
             style="fill:#ffffff;fill-opacity:1;fill-rule:nonzero;stroke:none"
             id="path3259" /><path
             d="m 3489.6,340.094 112.44,279.855 112.45,-279.855 -224.89,0 z m 119.74,446.922 c 3.64,10.011 14.72,15.214 24.74,11.543 10.03,-3.657 15.17,-14.715 11.54,-24.711 -2.93,-8.071 -10.67,-12.914 -18.79,-12.653 -1.99,0.063 -4,0.348 -5.97,1.071 -1.66,0.605 -3.13,1.468 -4.5,2.445 -6.92,4.91 -10.07,13.957 -7.02,22.305 z m 37.99,-91.032 -48.12,0 c 8.72,20.602 16.52,39.004 22.98,54.278 14.25,-2.422 28.64,5.527 33.76,19.597 5.74,15.805 -2.39,33.305 -18.21,39.071 -15.86,5.761 -33.33,-2.379 -39.08,-18.219 -5.11,-14.055 0.75,-29.359 13.19,-36.672 -65.98,-156.051 -265.63,-628.496 -266.01,-630.684 -0.44,-2.617 -0.83,-9.328 -0.83,-9.328 l 0.28,-8.484 c 0.14,-10.8907 5.97,-23.7618 13.59,-31.6719 l 35.65,-35.2344 c 7.9,-7.5898 20.71,-12.9062 31.71,-13.125 l 162.78,0 c 2.3,-7.9179 9.55,-13.7578 18.22,-13.7578 10.53,0 19.05,8.5547 19.05,19.0664 0,10.5195 -8.52,19.082 -19.05,19.082 -8.56,0 -15.73,-5.7031 -18.12,-13.4804 l -162.88,0 c -6.97,-0.211 -19.2,4.832 -23.98,9.9219 l -35.67,35.2578 c -5.14,4.8086 -10.11,17.9687 -9.92,24.9024 0,0 -0.66,10.414 0.54,15.289 0.08,0.32 1.53,3.855 3.92,9.625 l 45.16,0 57.42,142.348 276.66,0 57.42,-142.348 88.16,0 -238.62,564.566"
             style="fill:#ffffff;fill-opacity:1;fill-rule:nonzero;stroke:none"
             id="path3261" /><path
             d="m 4379.43,78.1094 c -1.73,0 -3.38,-0.3008 -4.97,-0.7422 l -23.71,36.7888 c -4.67,7.426 -9.63,18.395 -9.47,25.77 l 0,548.742 c 0,0 -1.24,7.328 -5.3,7.328 -3.24,0 -4.7,-4.934 -5.15,-7.043 -0.1,-0.48 -0.21,-4.949 -0.21,-4.949 l 0,-544.078 c 0.16,-11.547 4.86,-23.012 12.12,-33.492 l 22.3,-35.0121 c -2.88,-3.3516 -4.68,-7.6446 -4.68,-12.3907 0,-10.5156 8.54,-19.0664 19.07,-19.0664 10.53,0 19.05,8.5508 19.05,19.0664 0,10.5196 -8.52,19.0782 -19.05,19.0782"
             style="fill:#ffffff;fill-opacity:1;fill-rule:nonzero;stroke:none"
             id="path3263" /><path
             d="m 851.641,37.4023 0,1.2383 c 0,1.6914 -0.289,5.8399 -0.672,7.461 0,0 -4.703,16.1054 -10.727,24.5039 -1.219,1.6992 -2.582,3.5586 -3.777,4.7304 l -40.914,40.9301 c -1.188,1.152 -3.559,4.75 -4.406,6.168 0,0 -2.004,3.191 -3.469,6.55 -1.738,3.993 -3.008,8.36 -3.395,9.934 -0.703,2.891 -1.117,8.25 -1.117,9.894 l 0.024,540.266 c 0,1.676 -2.708,7 -5.555,7 -2.852,0 -5.606,-5.324 -5.606,-7 l 0,-540.98 c 0,-1.649 0.243,-5.254 0.7,-8.121 0.48,-3.098 2,-8.715 4.57,-14.739 1.594,-3.73 3.812,-7.617 5.769,-11.14 0.817,-1.469 2.582,-3.539 3.754,-4.746 l 41.649,-41.2778 c 1.187,-1.1719 1.535,-1.1992 4.058,-5.1094 2.532,-3.9101 7.957,-18.3203 7.957,-18.3203 0.395,-1.6211 0.731,-4.3125 0.731,-6.0039 l 0,-1.3554 c -7.887,-2.3438 -13.676,-9.586 -13.676,-18.2149 0,-10.51561 8.531,-19.06639375 19.07,-19.06639375 10.543,0 19.082,8.55078375 19.082,19.06639375 0,8.7656 -5.968,16.1055 -14.05,18.332"
             style="fill:#ffffff;fill-opacity:1;fill-rule:nonzero;stroke:none"
             id="path3265" /><path
             d="m 1325.65,340.094 112.44,279.855 112.42,-279.855 -224.86,0 z m 95.12,421.582 c -1.98,-0.723 -3.99,-1.008 -5.98,-1.074 -8.12,-0.27 -15.84,4.574 -18.77,12.617 -3.65,10.004 1.51,21.101 11.53,24.746 10.03,3.66 21.11,-1.527 24.77,-11.578 3.05,-8.34 -0.12,-17.379 -7.07,-22.282 -1.38,-0.964 -2.83,-1.824 -4.48,-2.429 z M 1700.08,93.0078 c -0.57,0 -1.11,-0.1172 -1.66,-0.164 L 1429.36,754.043 c 12.49,7.301 18.41,22.637 13.28,36.687 -5.76,15.832 -23.25,23.993 -39.07,18.243 -15.84,-5.766 -23.99,-23.25 -18.23,-39.094 5.09,-14.043 19.43,-21.981 33.64,-19.602 l 22.1,-54.293 -42.63,0 -241.03,-564.566 84.92,0 57.43,142.348 276.63,0 57.42,-142.348 37,0 17.37,-42.6836 c -4.35,-3.5 -7.19,-8.8086 -7.19,-14.8125 0,-10.5157 8.54,-19.0625 19.08,-19.0625 10.54,0 19.08,8.5468 19.08,19.0625 0,10.5156 -8.54,19.0859 -19.08,19.0859"
             style="fill:#ffffff;fill-opacity:1;fill-rule:nonzero;stroke:none"
             id="path3267" /><path
             d="m 3303.79,481.637 c -6.75,-12.946 -15.64,-23.332 -26.71,-31.145 -11.05,-7.812 -23.19,-13.484 -36.41,-16.976 -13.2,-3.52 -26.52,-5.262 -40.02,-5.262 l -80.08,0 0,196.547 68.76,0 c 13.47,0 27.49,-1.891 42.07,-5.66 14.56,-3.782 28.03,-9.438 40.44,-16.989 12.39,-7.558 22.51,-17.664 30.34,-30.316 7.82,-12.688 11.71,-27.383 11.71,-44.106 0,-17.785 -3.37,-33.144 -10.1,-46.093 z m -279.87,292.152 c -3.66,9.996 1.5,21.07 11.52,24.727 10.03,3.668 21.12,-1.543 24.77,-11.555 3.63,-10.008 -1.54,-21.106 -11.56,-24.738 -10.01,-3.668 -21.1,1.523 -24.73,11.566 z M 2910.58,12.2266 c -10.02,-3.65629 -21.1,1.5195 -24.75,11.5507 -3.65,10.0118 1.51,21.0821 11.56,24.7383 10.01,3.6563 21.06,-1.5273 24.72,-11.5508 3.67,-10.0234 -1.52,-21.121 -11.53,-24.7382 z m 472.88,594.3754 c -10.8,21.839 -25.88,39.238 -45.3,52.168 -19.41,12.953 -41.64,22.371 -66.72,28.324 -25.1,5.91 -53,8.898 -83.73,8.898 l -140.49,0 0,54.281 c 1.71,0.301 3.42,0.672 5.1,1.286 15.83,5.769 23.96,23.257 18.19,39.101 -5.73,15.84 -23.22,23.973 -39.05,18.215 -15.84,-5.754 -24,-23.254 -18.23,-39.07 3.85,-10.571 12.98,-17.602 23.31,-19.469 l 0,-618.231 c 0.2,-7.386 -3.54,-16.738 -9.46,-26.937 0,0 -29.56,-46.2422 -32.67,-50.7266 -3.12,-4.4844 -9.2,-9.4531 -9.2,-9.4531 -4.07,-4.2031 -22.23,-11.3985 -28.03,-11.1719 l -23.16,-0.1406 c -0.26,2.4609 -0.7,4.918 -1.59,7.3437 -5.74,15.8438 -23.24,23.9805 -39.08,18.2344 -15.83,-5.7812 -23.97,-23.2695 -18.21,-39.082 5.77,-15.81643 23.28,-23.99612 39.07,-18.24612 10.07,3.67578 17,12.07812 19.24,21.76952 l 23.94,0.0156 c 9.52,0.0625 21.21,4.9414 29.48,9.3321 11.1,5.8984 17.77,18.0078 24.38,28.0156 6.49,9.7969 21.77,33.8281 23.16,36.0898 7.86,12.8476 12.38,22.9846 12.74,34.2696 l 73.42,0 0,225.656 79.28,0 c 26.97,0 52.29,3.094 76.02,9.289 23.72,6.215 44.9,16.059 63.49,29.532 18.61,13.476 33.3,31.14 44.1,52.984 10.76,21.84 16.17,47.855 16.17,78.047 0,31.277 -5.41,57.84 -16.17,79.676"
             style="fill:#ffffff;fill-opacity:1;fill-rule:nonzero;stroke:none"
             id="path3269" /><path
             d="M 572.719,61.6016 103.77,61.0586 c -5.8208,-0.2539 -19.0825,-0.25 -26.3012,5.6914 -7.2149,5.9336 -8.129,7.4336 -11.1797,11.1875 -3.0508,3.7578 -31.0079,44.6285 -31.0079,44.6285 -5.9257,10.204 -9.9921,19.567 -9.8281,26.911 l 0,347.207 c 8.5625,2.336 14.875,10.097 14.875,19.371 0,11.148 -9.0078,20.191 -20.1562,20.191 C 9.01953,536.246 0,527.203 0,516.055 0,506.812 6.28516,499.078 14.8047,496.711 l 0,-347.234 c 0.1601,-11.532 5.4336,-23.848 13.5273,-34.942 1.4258,-2.223 2.8438,-4.418 4.2696,-6.621 C 39.0195,98.082 44.3359,91.2617 50.8086,81.4805 57.4258,71.4883 64.0469,61.4023 75.1328,55.5039 83.4219,51.1133 94.418,51 103.938,50.9297 l 468.878,-0.0352 c 0,0 8.707,-0.3515 8.707,5.4336 0,5.7578 -8.804,5.2735 -8.804,5.2735"
             style="fill:#ffffff;fill-opacity:1;fill-rule:nonzero;stroke:none"
             id="path3271" /><path
             d="m 655.473,610.512 c -3.176,-8.719 -11.528,-14.18 -20.371,-13.184 -0.582,0.059 -3.5,0.758 -4.204,1.016 -1.152,0.422 -2.21,0.957 -3.23,1.558 L 478.656,444.078 461.055,425.684 c 1.699,-3.52 2.34,-7.442 1.812,-11.243 -0.484,-4.007 -2.168,-7.894 -5.176,-11.039 -7.441,-7.773 -19.765,-8.047 -27.558,-0.586 -7.789,7.438 -8.031,19.782 -0.598,27.555 6.383,6.68 16.031,8.496 23.664,3.953 l 17.567,18 L 619.605,608 c -2.554,4.758 -3.234,10.492 -1.242,15.969 3.742,10.258 15.067,15.578 25.321,11.836 0.16,-0.051 0.293,-0.157 0.449,-0.215 9.914,-3.906 15.008,-15.008 11.34,-25.078 z M 583.477,195.914 c -1.254,-1.195 -2.864,-1.789 -4.469,-1.789 -1.719,0 -3.434,0.68 -4.711,2.031 L 375.82,405.574 177.348,196.156 c -1.278,-1.351 -2.996,-2.031 -4.715,-2.031 -1.61,0 -3.215,0.594 -4.469,1.789 -2.605,2.461 -2.715,6.574 -0.242,9.18 L 366.871,415.02 167.926,624.934 c -2.473,2.601 -2.36,6.711 0.25,9.175 2.586,2.485 6.691,2.379 9.179,-0.242 l 198.465,-209.41 198.465,209.41 c 2.477,2.621 6.582,2.727 9.188,0.242 2.605,-2.464 2.718,-6.574 0.242,-9.175 L 384.77,415.02 583.727,205.094 c 2.468,-2.606 2.359,-6.719 -0.25,-9.18 z m -446.364,25.395 c 0.004,-0.11 0.043,-0.219 0.051,-0.332 0.086,-1.118 0.024,-2.25 -0.09,-3.383 -0.023,-0.246 0,-0.481 -0.039,-0.719 -0.176,-1.348 -0.496,-2.695 -0.984,-4.023 -3.742,-10.262 -15.067,-15.579 -25.321,-11.836 -10.234,3.726 -15.5152,15.062 -11.7964,25.296 1.5114,4.122 4.2814,7.399 7.6834,9.657 1.172,0.773 2.442,1.406 3.75,1.926 0.207,0.078 0.418,0.148 0.629,0.218 1.113,0.399 2.258,0.68 3.422,0.875 0.348,0.055 0.684,0.117 1.031,0.153 1.082,0.121 2.184,0.113 3.281,0.047 0.391,-0.024 0.782,-0.004 1.168,-0.051 1.446,-0.184 2.54,-0.485 3.973,-1.008 1.008,-0.371 2.098,-1.074 3.004,-1.582 l 147.09,153.824 17.476,18.258 c -3.511,7.039 -2.246,15.371 3.5,21.371 7.317,7.641 19.438,7.91 27.094,0.582 7.66,-7.316 7.903,-19.449 0.594,-27.09 -6.246,-6.539 -15.535,-8.054 -23.024,-3.652 L 282.441,381.891 135.23,227.945 c 0.985,-2.086 1.661,-4.316 1.883,-6.636 z m 510.645,425.746 c -1.199,0.433 -2.414,0.64 -3.625,0.918 l 0,13.121 c 0,19.234 -15.602,34.836 -34.836,34.836 l -467.887,0 c -19.238,0 -34.816,-15.602 -34.816,-34.836 l 0,-412.906 c -8.3128,-3.059 -15.3128,-9.477 -18.5745,-18.458 -5.8789,-16.179 2.4453,-34.066 18.6285,-39.968 3.411,-1.239 6.875,-1.711 10.305,-1.739 4.934,-6.8 34.363,-47.378 37.703,-50.753 3.656,-3.68 10.774,-5.661 19.145,-5.723 l 435.496,0 c 19.234,0 34.836,15.617 34.836,34.832 l 0,421.062 c 9.922,2.305 18.523,9.368 22.258,19.653 5.882,16.176 -2.446,34.062 -18.633,39.961"
             style="fill:#ffffff;fill-opacity:1;fill-rule:nonzero;stroke:none"
             id="path3273" /><path
             d="M 46.2695,738.824 C 49.9258,748.832 61,754.047 71.0195,750.383 81.043,746.707 86.2227,735.648 82.5742,725.652 78.9141,715.605 67.832,710.414 57.8125,714.086 47.7891,717.719 42.6289,728.82 46.2695,738.824 z M 670.078,115.211 c -9.215,0 -16.902,-6.234 -19.312,-14.688 L 147.875,99.9961 c -5.82,-0.2617 -21.16,0.1249 -29.07,7.4419 -5.793,5.355 -39.3988,54.066 -39.3988,54.066 -5.9453,10.199 -10.0117,19.558 -9.8398,26.937 l 0,513.395 c 10.3398,1.859 19.4727,8.891 23.3359,19.473 0.7071,1.953 1.2032,3.929 1.4961,5.906 l 426.3436,0 c 6.598,0.125 13.766,2.265 20.215,5.5 3.336,-2.867 7.621,-4.656 12.367,-4.656 10.543,0 19.071,8.543 19.071,19.07 0,10.516 -8.528,19.059 -19.071,19.059 -10.543,0 -19.086,-8.543 -19.086,-19.059 0,-1.852 0.348,-3.598 0.844,-5.293 -4.965,-2.285 -10.437,-3.922 -14.34,-3.836 L 94,738.043 c -2.1211,9.926 -9.0625,18.602 -19.3242,22.34 -15.8516,5.758 -33.3281,-2.379 -39.082,-18.219 -5.7579,-15.84 2.3906,-33.336 18.2343,-39.098 1.6797,-0.617 3.3789,-0.98 5.0821,-1.285 l 0,-513.34 c 0.164,-11.566 5.4414,-23.882 13.5273,-34.972 1.4258,-2.215 2.8437,-4.403 4.2773,-6.61 6.4141,-9.828 11.7422,-16.648 18.2071,-26.429 6.6171,-10.008 13.2301,-20.071 24.3161,-25.973 8.289,-4.3945 19.285,-4.5234 28.805,-4.5742 L 650.66,89.8359 c 2.301,-8.6093 10.086,-14.9726 19.418,-14.9726 11.16,0 20.156,9.0156 20.156,20.1484 0,11.1443 -8.996,20.1993 -20.156,20.1993"
             style="fill:#ffffff;fill-opacity:1;fill-rule:nonzero;stroke:none"
             id="path3275" /></g></g></g></g></svg>